<?xml version="1.0" standalone="no"?>
<!DOCTYPE svg PUBLIC "-//W3C//DTD SVG 20010904//EN"
 "http://www.w3.org/TR/2001/REC-SVG-20010904/DTD/svg10.dtd">
<svg version="1.0" xmlns="http://www.w3.org/2000/svg"
 width="1280.000000pt" height="640.000000pt" viewBox="0 0 1280.000000 640.000000"
 preserveAspectRatio="xMidYMid meet">
<metadata>
Created by potrace 1.15, written by Peter Selinger 2001-2017
</metadata>
<g transform="translate(0.000000,640.000000) scale(0.100000,-0.100000)"
fill="#000000" stroke="none">
<path d="M9150 4008 c-107 -4 -217 -12 -245 -18 -27 -5 -81 -16 -120 -23 -38
-8 -133 -18 -210 -21 -224 -11 -330 -25 -495 -66 -182 -46 -265 -60 -535 -95
-333 -42 -494 -75 -595 -125 -165 -82 -404 -153 -620 -186 -152 -23 -444 -24
-589 -1 -161 26 -294 63 -436 122 -230 95 -396 148 -535 171 -25 4 -344 8
-710 9 -366 1 -1410 7 -2320 14 -910 6 -1666 9 -1681 6 -33 -7 -35 -14 -50
-170 -12 -124 -10 -290 11 -725 l12 -235 26 -22 c29 -25 126 -64 207 -85 37
-10 160 -13 465 -13 228 0 561 -6 740 -13 179 -7 453 -12 610 -12 157 1 398
-3 535 -9 138 -5 536 -12 885 -16 349 -3 699 -10 777 -16 185 -15 632 -6 728
14 39 8 124 37 190 64 314 130 613 180 1005 169 442 -13 432 -11 670 -106 218
-88 200 -85 566 -74 256 7 381 -1 604 -43 74 -13 160 -29 190 -33 77 -13 485
-57 665 -72 186 -15 703 -15 930 1 171 12 369 36 387 47 5 3 50 5 101 5 131
-2 234 14 462 69 110 27 229 54 265 60 36 6 103 22 150 35 162 46 258 57 573
62 l297 5 38 38 c57 58 100 66 257 49 177 -19 234 -17 292 12 57 29 92 86 125
206 17 63 21 107 22 233 1 207 -25 331 -105 493 -32 67 -34 68 -64 62 -181
-38 -294 -32 -595 31 -113 24 -147 27 -365 29 -258 1 -302 7 -575 75 -352 87
-1191 130 -1940 98z m-455 -78 c3 -5 1 -10 -4 -10 -6 0 -11 5 -11 10 0 6 2 10
4 10 3 0 8 -4 11 -10z m755 -71 c87 -28 245 -37 465 -26 99 5 210 6 248 3 73
-5 93 8 25 17 -24 4 -196 11 -383 18 -187 6 -342 13 -344 15 -8 7 8 16 46 25
51 12 602 11 739 -1 131 -12 298 -35 414 -55 47 -9 177 -24 290 -35 182 -17
336 -46 379 -69 11 -7 8 -13 -15 -27 -48 -32 -141 -23 -379 36 -173 44 -229
54 -320 57 -71 3 -105 1 -95 -5 8 -6 125 -29 260 -51 330 -56 441 -78 530
-102 131 -37 160 -63 101 -93 -23 -13 -65 -23 -238 -58 -4 -1 51 -4 122 -8
145 -6 175 -17 175 -62 0 -38 -57 -81 -142 -109 -57 -18 -83 -21 -151 -16 -72
5 -92 2 -175 -25 -52 -16 -92 -31 -90 -33 2 -2 55 5 118 16 140 25 392 31 428
11 18 -10 20 -17 12 -32 -16 -30 -85 -48 -264 -69 -195 -23 -250 -43 -278
-101 -17 -33 -23 -36 -100 -52 l-83 -17 90 5 c252 13 542 16 548 6 4 -6 -24
-21 -71 -38 -42 -15 -80 -30 -84 -33 -4 -3 26 -6 65 -7 124 -1 189 -50 135
-101 -31 -29 -130 -77 -201 -98 -43 -12 -57 -21 -55 -33 2 -11 -5 -18 -21 -20
-19 -3 -22 0 -17 13 5 13 2 16 -11 10 -10 -3 -65 -10 -123 -15 -58 -5 -119
-13 -135 -18 -35 -11 -75 1 -75 22 0 50 109 86 261 86 104 0 220 14 247 29 12
7 11 11 -8 21 -26 14 -239 18 -280 6 -22 -7 -21 -5 10 22 l35 30 -28 13 c-31
14 -173 2 -317 -28 -111 -22 -110 -28 3 -29 56 0 111 -5 122 -11 19 -11 19
-12 -7 -22 -66 -25 -407 -79 -638 -101 -113 -11 -190 -5 -192 15 -1 6 16 19
38 30 34 17 60 20 199 21 161 1 249 9 240 23 -5 9 -213 22 -368 22 -93 0 -112
-3 -142 -21 -19 -12 -35 -25 -35 -28 0 -4 -17 -26 -39 -50 -35 -37 -44 -42
-84 -42 -24 0 -62 6 -83 13 -22 8 -77 17 -123 20 -47 4 -89 11 -94 16 -14 14
180 50 286 52 l42 0 -51 18 c-27 10 -65 26 -84 36 -31 16 -32 19 -16 30 21 16
78 22 263 31 l142 7 -29 27 c-31 29 -32 52 -2 66 9 4 60 10 112 13 l95 6 -35
19 c-27 15 -61 21 -147 24 -147 6 -536 -8 -503 -19 14 -4 57 -17 97 -28 40
-12 85 -32 100 -45 l28 -24 -28 -11 c-16 -6 -65 -11 -109 -11 -70 0 -79 -2
-68 -15 18 -22 -5 -20 -117 11 -117 32 -145 29 -80 -9 26 -15 47 -31 47 -36 0
-18 -51 -53 -91 -62 -47 -11 -86 -8 -253 22 -123 21 -211 24 -253 8 -22 -8
-25 -12 -13 -19 23 -12 78 -19 308 -35 117 -9 225 -21 240 -26 l27 -11 -40
-16 c-33 -14 -80 -17 -265 -16 -355 0 -508 39 -409 102 l32 20 -119 4 c-119 4
-385 53 -544 99 -36 11 -112 26 -170 34 -174 26 -235 49 -303 113 -61 59 -95
202 -66 279 38 102 158 133 370 97 88 -15 211 -15 226 0 13 13 -23 35 -82 52
-38 10 -123 18 -231 22 -208 8 -234 21 -182 87 53 68 228 145 330 145 29 0 88
7 132 15 236 45 529 79 556 65 21 -12 -56 -44 -145 -61 -105 -20 -53 -22 102
-5 76 8 170 18 208 22 58 5 74 11 91 31 24 30 65 32 164 9 107 -26 146 -22
186 18 19 19 34 41 34 50 0 12 10 9 48 -15 26 -16 76 -39 112 -50z m1052 66
c0 -5 -5 -11 -11 -13 -6 -2 -11 4 -11 13 0 9 5 15 11 13 6 -2 11 -8 11 -13z
m-1635 -46 l28 -12 -25 -7 c-63 -20 -115 -6 -72 19 22 14 35 13 69 0z m3013
-140 c0 -3 19 -14 43 -25 57 -25 126 -90 148 -139 18 -39 24 -119 13 -160 -5
-19 -14 -20 -167 -21 -171 0 -230 -11 -208 -38 7 -8 35 -20 63 -26 48 -12 50
-13 28 -25 -12 -7 -52 -42 -89 -78 l-67 -67 -42 168 c-78 308 -68 401 41 403
23 0 51 4 62 9 22 10 175 9 175 -1z m235 -46 c21 -32 23 -39 9 -41 -22 -5 -54
27 -54 55 0 33 16 28 45 -14z m-10710 -20 c352 -3 660 -5 685 -5 25 0 473 -5
995 -11 523 -6 966 -11 985 -10 19 0 204 1 410 2 398 1 477 -5 590 -48 30 -11
111 -41 180 -66 330 -123 696 -177 946 -139 155 23 243 22 285 -2 54 -32 60
-52 53 -199 -5 -108 -3 -133 9 -150 15 -19 17 -19 34 -2 15 15 18 34 17 115 0
53 -4 129 -8 169 -7 60 -6 76 8 98 23 34 48 31 84 -10 38 -42 50 -107 34 -185
-12 -58 -5 -237 9 -246 19 -11 31 84 35 271 4 199 4 200 29 222 14 12 32 20
39 17 31 -12 38 -69 45 -359 3 -159 10 -296 14 -302 11 -17 12 -17 -175 18
-425 80 -627 94 -858 60 -187 -28 -318 -62 -625 -162 -161 -52 -264 -80 -290
-80 -22 1 -254 2 -515 1 -1721 0 -2493 1 -2499 5 -15 9 -1428 5 -1490 -4 -114
-17 -200 12 -250 85 -65 95 -79 225 -57 529 9 127 16 258 16 292 l0 61 53 18
c82 28 158 33 372 27 110 -3 488 -8 840 -10z m11195 7 c0 -5 -4 -10 -10 -10
-5 0 -10 5 -10 10 0 6 5 10 10 10 6 0 10 -4 10 -10z m-1142 -18 c2 -7 -3 -12
-12 -12 -9 0 -16 7 -16 16 0 17 22 14 28 -4z m1050 -7 c39 -18 53 -30 50 -42
-3 -15 -18 -19 -103 -23 -75 -4 -108 -2 -132 9 -18 8 -33 18 -33 22 0 4 14 19
31 33 41 35 113 35 187 1z m-5099 -15 c60 -42 95 -152 72 -223 -7 -20 -26 -48
-44 -63 -30 -26 -32 -26 -138 -19 -112 7 -198 0 -182 -16 15 -15 142 -38 236
-43 48 -3 88 -8 89 -13 7 -37 -160 -69 -304 -57 -48 4 -78 3 -78 -3 0 -20 172
-63 250 -63 93 0 118 -12 69 -33 -39 -16 -150 -37 -196 -37 -17 0 -36 -7 -44
-16 -9 -11 -22 -14 -41 -10 -21 4 -30 1 -35 -10 -5 -13 7 -106 23 -184 5 -23
3 -22 -30 12 -53 55 -77 144 -83 304 -6 155 11 255 60 348 33 62 94 116 131
116 12 0 46 9 76 20 67 25 126 21 169 -10z m4856 -134 c16 -11 23 -10 54 11
47 32 76 28 76 -12 0 -25 -5 -31 -30 -35 -29 -5 -29 -6 15 -17 71 -19 123 -24
155 -15 40 11 39 40 -2 68 -32 21 -32 22 -10 28 35 8 95 -12 112 -38 22 -34 9
-82 -36 -127 -20 -20 -52 -40 -70 -44 l-34 -8 58 -19 c31 -11 57 -23 57 -27 0
-9 -121 -21 -202 -21 -26 0 -48 -4 -48 -10 0 -6 30 -10 70 -10 128 0 220 -34
220 -81 0 -35 -39 -43 -122 -26 -47 10 -101 14 -149 11 -59 -4 -81 -2 -109 13
-43 22 -80 91 -80 148 0 23 -6 47 -12 53 -9 9 -10 15 -2 20 6 4 14 32 18 62 3
30 9 74 12 98 l7 44 17 -26 c9 -15 25 -32 35 -40z m445 -131 c0 -8 -4 -15 -10
-15 -5 0 -10 7 -10 15 0 8 5 15 10 15 6 0 10 -7 10 -15z m-1160 -9 c0 -3 -4
-8 -10 -11 -5 -3 -10 -1 -10 4 0 6 5 11 10 11 6 0 10 -2 10 -4z m1163 -45 c5
-22 0 -31 -20 -31 -7 0 -13 11 -13 25 0 30 25 34 33 6z m-684 -22 c18 -11 31
-22 29 -24 -2 -2 -35 -9 -74 -15 -84 -13 -136 -1 -113 26 31 38 107 44 158 13z
m71 -73 c0 -15 -18 -31 -26 -23 -7 7 7 37 17 37 5 0 9 -6 9 -14z m-130 -16 c0
-5 -5 -10 -11 -10 -5 0 -7 5 -4 10 3 6 8 10 11 10 2 0 4 -4 4 -10z m-511 -57
c37 -29 38 -49 0 -68 -60 -31 -202 -32 -244 -1 -17 12 -16 15 11 45 53 59 169
71 233 24z m576 -62 c-13 -13 -15 -13 -16 -1 -2 23 1 53 8 80 5 22 7 19 14
-20 7 -34 5 -48 -6 -59z m-275 59 c0 -5 -4 -10 -9 -10 -6 0 -13 5 -16 10 -3 6
1 10 9 10 9 0 16 -4 16 -10z m120 -5 c-7 -8 -22 -15 -34 -15 -20 1 -20 2 4 15
33 19 46 19 30 0z m280 5 c0 -5 -4 -10 -10 -10 -5 0 -10 5 -10 10 0 6 5 10 10
10 6 0 10 -4 10 -10z m-1020 -54 c0 -16 -18 -31 -27 -22 -8 8 5 36 17 36 5 0
10 -6 10 -14z m504 -26 c-12 -13 -24 -16 -33 -11 -11 7 -7 12 15 24 36 19 44
13 18 -13z m-4741 -20 c-7 -28 -13 -25 -13 6 0 14 4 23 9 20 5 -3 7 -15 4 -26z
m5659 19 c21 -5 50 -21 65 -34 40 -35 18 -47 -77 -41 -41 3 -118 8 -170 11
-110 7 -140 12 -140 24 0 9 63 35 105 44 41 9 181 7 217 -4z m-398 -15 c10
-25 7 -34 -9 -34 -9 0 -15 9 -15 25 0 28 15 34 24 9z m-504 -24 c0 -5 -5 -10
-11 -10 -5 0 -7 5 -4 10 3 6 8 10 11 10 2 0 4 -4 4 -10z m-42 -43 c2 -12 -3
-17 -17 -17 -12 0 -21 6 -21 13 0 31 32 34 38 4z m332 13 c0 -5 -4 -10 -10
-10 -5 0 -10 5 -10 10 0 6 5 10 10 10 6 0 10 -4 10 -10z m-100 -31 c0 -5 -4
-9 -10 -9 -5 0 -10 7 -10 16 0 8 5 12 10 9 6 -3 10 -10 10 -16z m304 0 c-8
-14 -24 -10 -24 6 0 9 6 12 15 9 8 -4 12 -10 9 -15z m-4224 -43 c102 -24 221
-52 264 -62 44 -11 81 -24 83 -31 2 -6 -27 -28 -66 -48 -48 -25 -74 -46 -83
-65 -10 -23 -16 -27 -34 -20 -12 5 -68 14 -125 20 -57 6 -126 17 -154 25 -27
7 -81 15 -119 19 -37 3 -75 11 -82 17 -24 20 -15 38 22 45 37 7 57 5 194 -20
95 -18 196 -21 205 -7 18 29 -160 90 -287 98 -78 5 -90 9 -114 34 -62 64 9 63
296 -5z m3712 19 c0 -5 -5 -11 -11 -13 -6 -2 -11 4 -11 13 0 9 5 15 11 13 6
-2 11 -8 11 -13z m158 -6 c0 -6 -4 -7 -10 -4 -5 3 -10 11 -10 16 0 6 5 7 10 4
6 -3 10 -11 10 -16z m-4857 -26 c-3 -9 -9 -11 -15 -5 -5 5 -6 17 -2 26 5 13 9
14 14 5 5 -7 6 -19 3 -26z m5747 16 c0 -6 -4 -7 -10 -4 -5 3 -10 11 -10 16 0
6 5 7 10 4 6 -3 10 -11 10 -16z m-649 -22 c-13 -13 -26 -3 -16 12 3 6 11 8 17
5 6 -4 6 -10 -1 -17z m323 17 c23 -9 20 -19 -9 -32 -34 -16 -47 -15 -71 3 -16
13 -17 16 -4 25 17 11 60 13 84 4z m221 -14 c0 -10 -13 -16 -42 -18 -45 -3
-56 9 -25 27 24 15 67 9 67 -9z m-790 0 c3 -5 1 -10 -4 -10 -6 0 -11 5 -11 10
0 6 2 10 4 10 3 0 8 -4 11 -10z m95 -11 c0 -5 -4 -9 -10 -9 -5 0 -10 7 -10 16
0 8 5 12 10 9 6 -3 10 -10 10 -16z m540 11 c0 -5 -5 -10 -11 -10 -5 0 -7 5 -4
10 3 6 8 10 11 10 2 0 4 -4 4 -10z m-310 -10 c0 -5 -4 -10 -10 -10 -5 0 -10 5
-10 10 0 6 5 10 10 10 6 0 10 -4 10 -10z m-4883 -67 c-3 -10 -5 -2 -5 17 0 19
2 27 5 18 2 -10 2 -26 0 -35z m2321 14 c3 -13 -4 -17 -27 -17 -34 0 -40 14
-13 29 22 13 36 9 40 -12z m2037 -28 c-10 -31 -27 -7 -19 26 6 23 8 25 16 11
5 -9 6 -26 3 -37z m275 20 c0 -11 -4 -17 -10 -14 -5 3 -10 13 -10 21 0 8 5 14
10 14 6 0 10 -9 10 -21z m-4428 -1 c7 -18 -2 -39 -13 -32 -12 7 -12 44 0 44 5
0 11 -6 13 -12z m928 -41 c0 -5 -4 -5 -10 -2 -5 3 -10 14 -10 23 0 15 2 15 10
2 5 -8 10 -19 10 -23z m3345 23 c3 -5 1 -10 -4 -10 -6 0 -11 5 -11 10 0 6 2
10 4 10 3 0 8 -4 11 -10z m-4490 -29 c3 -5 1 -12 -5 -16 -5 -3 -10 1 -10 9 0
18 6 21 15 7z m4720 -1 c3 -5 -1 -10 -9 -10 -9 0 -16 5 -16 10 0 6 4 10 9 10
6 0 13 -4 16 -10z m-45 -10 c0 -5 -4 -10 -10 -10 -5 0 -10 5 -10 10 0 6 5 10
10 10 6 0 10 -4 10 -10z m-4232 -58 c2 -7 -3 -12 -12 -12 -9 0 -16 7 -16 16 0
17 22 14 28 -4z m582 -2 c0 -5 -2 -10 -4 -10 -3 0 -8 5 -11 10 -3 6 -1 10 4
10 6 0 11 -4 11 -10z m630 -32 c41 -5 145 -13 230 -18 176 -9 233 -17 227 -34
-6 -18 -95 -36 -123 -25 -14 5 -94 9 -177 9 -116 0 -159 -4 -181 -15 -27 -14
-32 -14 -81 14 -68 38 -128 56 -149 44 -17 -9 -190 7 -202 20 -25 24 285 28
456 5z m1810 14 c0 -17 -25 -32 -52 -32 -36 0 -36 15 0 28 34 13 52 14 52 4z
m-2825 -32 c3 -5 2 -10 -4 -10 -5 0 -13 5 -16 10 -3 6 -2 10 4 10 5 0 13 -4
16 -10z m2609 1 c3 -5 0 -11 -8 -14 -15 -6 -26 1 -26 15 0 11 27 10 34 -1z
m-650 -29 l30 -8 -33 -24 c-44 -30 -113 -37 -184 -16 -30 9 -60 16 -65 16 -19
0 -73 -53 -68 -66 6 -16 -101 29 -124 51 -21 22 5 44 66 55 57 11 335 5 378
-8z m-1424 -13 c0 -14 -43 -48 -52 -42 -9 5 10 44 26 55 12 8 26 1 26 -13z
m1810 -5 c0 -8 -4 -14 -10 -14 -5 0 -10 9 -10 21 0 11 5 17 10 14 6 -3 10 -13
10 -21z m-9867 -9 c1 -5 -6 -11 -15 -13 -11 -2 -18 3 -18 13 0 17 30 18 33 0z
m3132 -5 c3 -5 1 -10 -4 -10 -6 0 -11 5 -11 10 0 6 2 10 4 10 3 0 8 -4 11 -10z
m6395 0 c0 -5 -4 -10 -10 -10 -5 0 -10 5 -10 10 0 6 5 10 10 10 6 0 10 -4 10
-10z m930 -10 c0 -5 -2 -10 -4 -10 -3 0 -8 5 -11 10 -3 6 -1 10 4 10 6 0 11
-4 11 -10z m-2510 -21 c0 -20 -21 -49 -35 -49 -20 0 -19 19 2 42 18 20 33 24
33 7z m2485 -9 c3 -5 -1 -10 -9 -10 -9 0 -16 5 -16 10 0 6 4 10 9 10 6 0 13
-4 16 -10z m-2136 -31 c-19 -12 -24 -2 -8 17 9 11 14 13 17 4 3 -7 -2 -16 -9
-21z m667 -17 c-20 -20 -22 -1 -4 31 11 20 12 21 16 3 2 -10 -3 -26 -12 -34z
m-6866 28 c0 -5 -4 -10 -10 -10 -5 0 -10 5 -10 10 0 6 5 10 10 10 6 0 10 -4
10 -10z m5768 -15 c-3 -3 -9 2 -12 12 -6 14 -5 15 5 6 7 -7 10 -15 7 -18z
m1052 15 c0 -5 -4 -10 -10 -10 -5 0 -10 5 -10 10 0 6 5 10 10 10 6 0 10 -4 10
-10z m680 -21 c0 -10 -4 -19 -10 -19 -5 0 -10 12 -10 26 0 14 4 23 10 19 6 -3
10 -15 10 -26z m-1512 -28 c-5 -40 -23 -31 -26 13 -3 36 -2 38 13 26 9 -8 15
-24 13 -39z m502 45 c0 -15 -14 -35 -21 -30 -15 9 -10 34 6 34 8 0 15 -2 15
-4z m71 -23 c-8 -15 -10 -15 -11 -2 0 17 10 32 18 25 2 -3 -1 -13 -7 -23z
m146 -5 c-3 -8 -6 -5 -6 6 -1 11 2 17 5 13 3 -3 4 -12 1 -19z m81 -11 c2 -15
-1 -27 -7 -27 -6 0 -11 6 -11 14 0 8 -3 22 -7 32 -4 12 -2 15 8 12 8 -2 15
-17 17 -31z m402 6 c0 -5 -5 -15 -10 -23 -8 -12 -10 -11 -10 8 0 12 5 22 10
22 6 0 10 -3 10 -7z m-510 -59 c0 -8 -4 -14 -10 -14 -5 0 -10 9 -10 21 0 11 5
17 10 14 6 -3 10 -13 10 -21z m-30 6 c0 -5 -2 -10 -4 -10 -3 0 -8 5 -11 10 -3
6 -1 10 4 10 6 0 11 -4 11 -10z"/>
<path d="M9290 3870 c0 -5 5 -10 10 -10 6 0 10 5 10 10 0 6 -4 10 -10 10 -5 0
-10 -4 -10 -10z"/>
<path d="M9970 3750 c0 -5 6 -10 13 -10 6 0 103 -7 215 -16 179 -15 226 -15
211 0 -2 2 -63 11 -134 20 -148 18 -305 21 -305 6z"/>
<path d="M9415 3739 c-96 -24 -44 -48 65 -30 38 6 113 11 167 12 77 0 93 2 73
11 -35 14 -256 20 -305 7z"/>
<path d="M8910 3733 c-117 -17 -195 -48 -97 -38 23 2 75 7 116 10 87 6 121 14
121 26 0 9 -89 10 -140 2z"/>
<path d="M8150 3714 l-45 -14 68 4 c38 2 74 9 80 15 16 16 -46 13 -103 -5z"/>
<path d="M10492 3714 c13 -13 167 -46 418 -89 146 -25 281 -50 300 -55 39 -11
63 2 33 18 -10 6 -50 15 -88 21 -39 6 -128 24 -200 40 -165 39 -480 83 -463
65z"/>
<path d="M8441 3675 c-82 -18 -88 -25 -21 -25 68 0 180 19 180 31 0 13 -85 10
-159 -6z"/>
<path d="M7751 3650 c-41 -11 -77 -22 -79 -25 -3 -3 44 -5 104 -5 115 0 188
13 181 33 -6 20 -125 18 -206 -3z"/>
<path d="M8185 3629 c-22 -5 -53 -14 -68 -21 -76 -30 61 -27 141 3 21 8 23 12
12 19 -18 11 -31 11 -85 -1z"/>
<path d="M9415 3635 c-5 -2 -145 -11 -310 -20 -304 -16 -386 -23 -395 -32 -3
-3 119 -3 270 0 335 8 528 26 514 48 -5 9 -59 11 -79 4z"/>
<path d="M9613 3620 c55 -17 285 -30 542 -29 216 0 283 -3 394 -20 140 -22
272 -28 256 -12 -15 14 -195 40 -355 50 -206 14 -872 23 -837 11z"/>
<path d="M8435 3530 c-3 -6 1 -13 10 -16 19 -8 30 0 20 15 -8 14 -22 14 -30 1z"/>
<path d="M9025 3501 c-19 -8 -18 -9 6 -16 34 -9 84 -3 84 10 0 13 -64 17 -90
6z"/>
<path d="M9266 3481 c13 -12 134 -24 134 -13 0 10 -57 22 -109 22 -21 0 -31
-4 -25 -9z"/>
<path d="M9537 3477 c-17 -12 -17 -14 6 -35 22 -21 28 -22 72 -12 85 19 384
30 685 24 162 -3 322 -1 355 3 l60 9 -115 7 c-63 3 -324 9 -580 12 -372 4
-469 3 -483 -8z"/>
<path d="M8220 3462 c0 -11 92 -49 140 -58 14 -3 34 1 45 10 19 14 19 15 -18
31 -48 20 -167 32 -167 17z"/>
<path d="M11228 3435 c-51 -28 -154 -44 -343 -55 -104 -6 -227 -15 -272 -20
-77 -9 -131 -25 -120 -37 7 -6 371 15 467 28 164 21 300 62 300 89 0 12 1 12
-32 -5z"/>
<path d="M8522 3394 c-17 -12 -20 -19 -12 -33 11 -22 108 -35 147 -20 25 9 25
10 8 29 -17 19 -72 40 -105 40 -9 0 -26 -7 -38 -16z"/>
<path d="M7620 3382 c-31 -15 -35 -22 -38 -59 -2 -25 4 -55 13 -73 14 -27 20
-31 38 -24 12 5 64 8 115 8 50 0 92 1 92 2 0 2 -26 10 -57 19 -73 21 -115 43
-108 55 4 6 16 10 28 10 47 0 98 21 95 38 -7 38 -120 53 -178 24z"/>
<path d="M7876 3371 c28 -26 184 -45 184 -22 0 10 -108 31 -160 31 -20 0 -30
-4 -24 -9z"/>
<path d="M8794 3359 c-10 -16 15 -29 58 -29 45 0 56 13 22 29 -32 14 -71 14
-80 0z"/>
<path d="M9125 3365 c-5 -2 -28 -7 -50 -11 l-40 -7 30 -7 c44 -11 163 -11 169
-1 11 17 -75 38 -109 26z"/>
<path d="M10110 3356 c0 -8 8 -24 18 -36 15 -18 24 -21 50 -15 41 8 40 20 0
45 -38 23 -68 26 -68 6z"/>
<path d="M8131 3344 c18 -22 84 -54 111 -54 13 0 30 5 38 10 13 9 13 11 0 20
-22 15 -110 40 -138 40 -21 0 -23 -2 -11 -16z"/>
<path d="M9331 3341 c-11 -7 -10 -11 5 -19 53 -27 161 -19 151 12 -4 14 -137
19 -156 7z"/>
<path d="M9680 3281 c0 -5 5 -13 10 -16 6 -3 10 -2 10 4 0 5 -4 13 -10 16 -5
3 -10 2 -10 -4z"/>
<path d="M9740 3270 c0 -17 7 -20 45 -20 50 0 59 15 19 30 -41 16 -64 12 -64
-10z"/>
<path d="M8447 3249 c-9 -6 -17 -16 -17 -24 0 -22 61 -77 110 -98 25 -10 52
-29 62 -40 14 -18 18 -19 33 -7 15 13 15 15 -2 29 -10 9 -32 35 -47 58 -41 62
-106 100 -139 82z"/>
<path d="M7998 3243 c-49 -8 -30 -20 60 -37 96 -19 180 -43 199 -58 14 -11
130 -1 138 12 7 12 -41 26 -190 56 -154 31 -172 33 -207 27z"/>
<path d="M8636 3241 c-3 -5 1 -11 9 -15 15 -6 29 7 18 18 -9 9 -21 8 -27 -3z"/>
<path d="M8730 3240 c-12 -8 -12 -10 3 -16 20 -7 47 1 47 16 0 12 -30 13 -50
0z"/>
<path d="M8880 3240 c8 -5 42 -9 75 -9 43 0 54 3 40 9 -29 12 -134 12 -115 0z"/>
<path d="M9150 3222 c0 -12 135 -66 190 -77 35 -7 35 -7 12 10 -50 37 -202 87
-202 67z"/>
<path d="M10061 3209 c-190 -18 -264 -49 -216 -89 13 -11 22 -10 54 8 67 38
146 52 287 52 132 0 230 12 248 30 12 12 -247 11 -373 -1z"/>
<path d="M10564 3205 c-17 -13 -14 -14 44 -15 59 0 80 11 46 24 -27 11 -70 6
-90 -9z"/>
<path d="M9585 3175 c-5 -2 -37 -7 -70 -11 -58 -7 -59 -7 -25 -15 33 -8 101
-4 144 8 15 4 16 7 5 14 -14 9 -35 10 -54 4z"/>
<path d="M7620 3146 c0 -34 142 -78 293 -92 73 -6 79 -5 75 12 -2 10 -23 32
-46 49 -37 26 -53 30 -110 31 -37 1 -100 5 -139 9 -65 7 -73 6 -73 -9z"/>
<path d="M8696 3132 c-7 -11 28 -44 71 -66 36 -18 120 -21 143 -6 13 9 12 12
-5 25 -39 30 -197 66 -209 47z"/>
<path d="M8985 3121 c-3 -6 8 -25 25 -44 24 -27 39 -35 77 -40 26 -3 56 -2 66
2 18 7 17 10 -14 33 -35 26 -109 58 -134 58 -7 0 -16 -4 -20 -9z"/>
<path d="M10441 3096 c-44 -16 -60 -39 -41 -61 11 -13 28 -15 111 -11 53 3
110 10 126 16 49 18 73 33 73 46 0 6 -10 14 -22 18 -40 10 -212 5 -247 -8z"/>
<path d="M8106 3081 c14 -15 151 -81 222 -107 46 -18 83 -24 142 -24 43 0 81
4 84 9 18 29 -136 90 -229 91 -33 0 -89 9 -125 20 -71 22 -110 26 -94 11z"/>
<path d="M9272 3067 c-12 -7 -19 -16 -16 -20 11 -11 172 -8 179 3 17 27 -119
41 -163 17z"/>
<path d="M8601 2995 c11 -11 219 -45 309 -51 88 -5 131 6 100 25 -20 13 -120
22 -205 19 -38 -1 -101 1 -140 6 -38 4 -67 5 -64 1z"/>
<path d="M9116 2971 c-3 -5 5 -24 17 -42 20 -30 30 -35 85 -43 43 -6 67 -5 74
2 16 16 0 32 -66 63 -62 29 -100 36 -110 20z"/>
<path d="M10310 2957 c-25 -7 -56 -20 -69 -29 l-24 -17 27 -7 c15 -3 46 -2 69
4 23 6 81 13 129 15 93 5 122 14 94 29 -28 16 -177 19 -226 5z"/>
<path d="M10580 2960 c20 -13 50 -13 50 0 0 6 -15 10 -32 10 -25 0 -29 -3 -18
-10z"/>
<path d="M11750 3531 c0 -5 12 -16 26 -26 22 -14 40 -16 116 -10 49 4 86 11
81 16 -20 20 -223 38 -223 20z"/>
<path d="M414 3569 c-29 -32 -31 -178 -4 -381 13 -100 20 -201 18 -256 -3 -88
-2 -92 17 -86 88 27 105 156 60 449 -13 88 -25 190 -25 228 0 64 -1 67 -23 67
-13 0 -32 -9 -43 -21z"/>
<path d="M606 3573 c-12 -12 -6 -43 9 -43 8 0 15 9 15 19 0 21 -13 34 -24 24z"/>
<path d="M770 3562 c0 -12 7 -25 15 -29 25 -9 27 2 6 28 l-20 24 -1 -23z"/>
<path d="M957 3564 c-8 -8 1 -24 14 -24 5 0 9 7 9 15 0 15 -12 20 -23 9z"/>
<path d="M1126 3561 c-4 -5 -2 -12 3 -15 5 -4 12 -2 15 3 4 5 2 12 -3 15 -5 4
-12 2 -15 -3z"/>
<path d="M1290 3551 c0 -21 26 -36 36 -20 6 11 -13 39 -27 39 -5 0 -9 -9 -9
-19z"/>
<path d="M1481 3534 c0 -11 3 -14 6 -6 3 7 2 16 -1 19 -3 4 -6 -2 -5 -13z"/>
<path d="M1650 3540 c0 -5 5 -10 11 -10 5 0 7 5 4 10 -3 6 -8 10 -11 10 -2 0
-4 -4 -4 -10z"/>
<path d="M1980 3540 c0 -5 5 -10 10 -10 6 0 10 5 10 10 0 6 -4 10 -10 10 -5 0
-10 -4 -10 -10z"/>
<path d="M2335 3541 c-3 -5 -1 -12 5 -16 5 -3 10 1 10 9 0 18 -6 21 -15 7z"/>
<path d="M2505 3541 c-3 -5 -1 -12 5 -16 5 -3 10 1 10 9 0 18 -6 21 -15 7z"/>
<path d="M2670 3534 c0 -8 5 -12 10 -9 6 3 10 10 10 16 0 5 -4 9 -10 9 -5 0
-10 -7 -10 -16z"/>
<path d="M2830 3541 c0 -6 5 -13 10 -16 6 -3 10 1 10 9 0 9 -4 16 -10 16 -5 0
-10 -4 -10 -9z"/>
<path d="M3010 3534 c0 -8 5 -12 10 -9 6 4 8 11 5 16 -9 14 -15 11 -15 -7z"/>
<path d="M3175 3530 c3 -5 8 -10 11 -10 2 0 4 5 4 10 0 6 -5 10 -11 10 -5 0
-7 -4 -4 -10z"/>
<path d="M3325 3530 c4 -6 11 -8 16 -5 14 9 11 15 -7 15 -8 0 -12 -5 -9 -10z"/>
<path d="M3490 3530 c0 -5 5 -10 10 -10 6 0 10 5 10 10 0 6 -4 10 -10 10 -5 0
-10 -4 -10 -10z"/>
<path d="M3655 3530 c3 -5 11 -10 16 -10 6 0 7 5 4 10 -3 6 -11 10 -16 10 -6
0 -7 -4 -4 -10z"/>
<path d="M3820 3525 c7 -9 15 -13 17 -11 7 7 -7 26 -19 26 -6 0 -6 -6 2 -15z"/>
<path d="M3980 3524 c0 -8 5 -12 10 -9 6 3 10 10 10 16 0 5 -4 9 -10 9 -5 0
-10 -7 -10 -16z"/>
<path d="M4140 3524 c0 -8 5 -12 10 -9 6 4 8 11 5 16 -9 14 -15 11 -15 -7z"/>
<path d="M4300 3530 c0 -5 5 -10 10 -10 6 0 10 5 10 10 0 6 -4 10 -10 10 -5 0
-10 -4 -10 -10z"/>
<path d="M4470 3530 c0 -5 5 -10 10 -10 6 0 10 5 10 10 0 6 -4 10 -10 10 -5 0
-10 -4 -10 -10z"/>
<path d="M4622 3529 c2 -7 10 -15 17 -17 8 -3 12 1 9 9 -2 7 -10 15 -17 17 -8
3 -12 -1 -9 -9z"/>
<path d="M4777 3533 c-15 -15 -7 -43 13 -43 21 0 24 8 14 34 -7 17 -16 20 -27
9z"/>
<path d="M4920 3463 c-36 -130 -38 -497 -4 -587 41 -108 64 -59 71 154 8 211
-18 470 -47 470 -5 0 -14 -17 -20 -37z"/>
<path d="M1301 3390 c-12 -55 -13 -289 -2 -330 4 -16 14 -25 26 -25 19 0 20 8
21 113 0 131 -12 272 -25 285 -5 5 -13 -12 -20 -43z"/>
<path d="M1137 3423 c-16 -25 -29 -156 -24 -242 5 -105 12 -131 33 -131 23 0
27 46 21 202 -6 137 -16 194 -30 171z"/>
<path d="M1657 3422 c-14 -21 -28 -237 -21 -319 6 -73 9 -83 25 -83 34 0 39
40 28 205 -11 163 -20 217 -32 197z"/>
<path d="M604 3385 c-14 -33 -16 -62 -11 -165 3 -69 10 -138 16 -154 10 -26
14 -28 26 -15 21 20 32 95 24 154 -4 28 -8 80 -8 116 -1 40 -7 73 -15 85 -14
18 -16 17 -32 -21z"/>
<path d="M1478 3383 c-8 -25 -13 -89 -13 -185 0 -127 2 -150 17 -165 35 -35
43 -4 40 155 -4 226 -15 275 -44 195z"/>
<path d="M2846 3404 c-27 -71 -46 -350 -30 -434 8 -38 32 -50 50 -25 10 14 12
65 7 239 -5 208 -12 260 -27 220z"/>
<path d="M3000 3333 c-18 -121 -19 -378 -2 -395 9 -9 17 -10 30 -2 15 10 17
31 15 205 -2 201 -8 279 -23 279 -4 0 -13 -39 -20 -87z"/>
<path d="M3315 3386 c-9 -46 -2 -442 8 -452 4 -4 15 0 24 9 15 15 17 38 15
184 -4 229 -28 362 -47 259z"/>
<path d="M4306 3388 c-12 -56 -23 -318 -17 -402 10 -132 54 -104 51 33 -5 299
-9 384 -18 393 -6 6 -12 -2 -16 -24z"/>
<path d="M773 3353 c-25 -84 -25 -265 0 -290 18 -17 19 -17 39 7 19 23 20 32
13 135 -5 61 -9 130 -10 155 -3 63 -21 61 -42 -7z"/>
<path d="M1820 3373 c-29 -102 -24 -346 7 -358 9 -3 20 -2 26 4 9 9 10 292 0
354 -3 20 -9 37 -14 37 -4 0 -13 -17 -19 -37z"/>
<path d="M1997 3404 c-17 -28 -28 -159 -25 -293 2 -125 6 -153 20 -167 32 -33
40 21 34 232 -5 177 -14 251 -29 228z"/>
<path d="M2170 3385 c-6 -16 -17 -86 -22 -155 -13 -151 -3 -277 25 -294 13 -8
20 -8 26 3 10 16 3 403 -9 446 l-7 30 -13 -30z"/>
<path d="M2346 3402 c-27 -43 -47 -382 -26 -436 11 -31 45 -35 53 -6 8 30 -4
434 -13 443 -4 5 -11 4 -14 -1z"/>
<path d="M2658 3383 c-12 -29 -14 -323 -2 -396 8 -49 26 -43 41 14 13 53 16
350 3 385 -12 32 -28 30 -42 -3z"/>
<path d="M3177 3403 c-16 -27 -31 -146 -31 -253 0 -158 26 -259 49 -187 10 32
19 348 11 402 -7 41 -18 56 -29 38z"/>
<path d="M3490 3358 c-15 -68 -25 -298 -16 -372 5 -36 13 -59 22 -63 34 -13
39 13 36 210 -3 201 -9 277 -22 277 -5 0 -14 -24 -20 -52z"/>
<path d="M3660 3374 c-16 -51 -25 -424 -11 -444 8 -12 14 -12 28 -4 17 10 18
29 15 235 -3 234 -11 283 -32 213z"/>
<path d="M3827 3395 c-24 -76 -36 -425 -17 -455 9 -13 13 -12 30 9 19 22 20
33 14 225 -4 110 -10 210 -14 221 -7 20 -7 20 -13 0z"/>
<path d="M3981 3375 c-29 -102 -25 -450 5 -462 8 -3 17 -3 20 0 9 9 4 455 -5
479 -8 21 -9 20 -20 -17z"/>
<path d="M4146 3394 c-22 -70 -34 -333 -20 -438 6 -40 10 -47 28 -44 21 3 21
6 18 230 -2 218 -10 300 -26 252z"/>
<path d="M4776 3349 c-3 -34 -6 -169 -6 -299 0 -193 3 -240 14 -249 25 -21 31
25 29 239 -3 230 -11 370 -22 370 -5 0 -11 -28 -15 -61z"/>
<path d="M5091 3348 c-15 -82 -26 -341 -17 -401 6 -37 11 -47 26 -47 23 0 39
27 41 66 2 59 -12 410 -17 427 -10 33 -22 17 -33 -45z"/>
<path d="M958 3373 c-15 -36 -22 -236 -11 -288 10 -46 37 -59 47 -23 8 30 8
286 0 316 -8 30 -22 28 -36 -5z"/>
<path d="M2502 3354 c-29 -129 -25 -379 5 -410 31 -30 35 0 31 213 -4 223 -16
288 -36 197z"/>
<path d="M4626 3363 c-10 -67 -19 -553 -10 -553 15 0 30 14 44 39 12 23 9 230
-6 464 -6 92 -18 112 -28 50z"/>
<path d="M4466 3353 c-3 -21 -9 -152 -12 -291 -7 -244 -6 -254 12 -250 37 7
46 45 37 163 -4 61 -6 133 -5 160 3 80 -9 255 -18 255 -4 0 -11 -17 -14 -37z"/>
<path d="M5250 3328 c-14 -37 -26 -322 -16 -362 8 -33 31 -33 52 0 15 22 16
45 10 182 -9 213 -19 253 -46 180z"/>
<path d="M5416 3303 c-21 -66 -23 -299 -3 -319 14 -14 36 7 46 43 13 48 -8
284 -26 290 -6 2 -14 -4 -17 -14z"/>
<path d="M6381 3281 c-13 -24 -14 -180 -1 -201 7 -11 13 -4 28 31 25 59 34
117 24 154 -10 36 -36 44 -51 16z"/>
<path d="M5902 3278 c-15 -15 -16 -167 -2 -188 9 -13 13 -11 29 10 26 33 34
81 21 129 -12 47 -31 66 -48 49z"/>
<path d="M5569 3264 c-7 -9 -15 -46 -17 -83 -6 -126 48 -222 61 -109 14 112 4
208 -22 208 -4 0 -15 -7 -22 -16z"/>
<path d="M6214 3248 c-9 -14 -6 -110 4 -158 l8 -35 17 32 c23 43 31 111 18
146 -11 28 -34 36 -47 15z"/>
<path d="M5719 3228 c-12 -23 -7 -116 10 -159 8 -23 11 -21 36 34 20 42 25 67
21 89 -11 58 -46 76 -67 36z"/>
<path d="M6047 3204 c-6 -34 3 -113 15 -120 16 -10 48 28 48 58 0 36 -26 88
-44 88 -8 0 -16 -11 -19 -26z"/>
<path d="M614 2967 c-8 -22 11 -46 26 -31 7 7 5 17 -4 30 -14 18 -15 18 -22 1z"/>
<path d="M772 2959 c4 -29 33 -48 49 -32 10 10 8 17 -6 33 -24 27 -47 26 -43
-1z"/>
<path d="M959 2964 c-10 -13 -10 -17 2 -25 27 -17 44 -4 33 25 -8 20 -18 20
-35 0z"/>
<path d="M1138 2968 c-6 -17 1 -38 13 -38 5 0 9 11 9 25 0 26 -14 34 -22 13z"/>
<path d="M1314 2966 c-4 -10 -2 -22 4 -28 8 -8 13 -7 18 6 4 10 2 22 -4 28 -8
8 -13 7 -18 -6z"/>
<path d="M1490 2965 c-14 -16 -5 -35 16 -35 15 0 20 35 5 44 -5 3 -14 -1 -21
-9z"/>
<path d="M1650 2970 c0 -30 22 -50 55 -50 43 0 52 13 21 33 -34 23 -76 32 -76
17z"/>
<path d="M1820 2955 c0 -8 9 -19 20 -25 23 -12 25 -7 10 21 -13 22 -30 25 -30
4z"/>
<path d="M627 2874 c-12 -12 -8 -41 8 -54 23 -19 30 -4 14 31 -8 17 -18 27
-22 23z"/>
<path d="M4295 2870 c-3 -5 -3 -25 1 -45 4 -25 11 -35 25 -35 23 0 24 21 4 60
-17 33 -21 35 -30 20z"/>
<path d="M784 2856 c-8 -21 3 -36 27 -36 25 0 25 26 -1 40 -16 9 -22 8 -26 -4z"/>
<path d="M960 2855 c0 -18 24 -30 40 -20 8 5 8 11 -1 21 -15 19 -39 18 -39 -1z"/>
<path d="M1134 2854 c3 -9 6 -18 6 -20 0 -2 9 -4 20 -4 23 0 26 10 8 28 -18
18 -41 15 -34 -4z"/>
<path d="M1480 2846 c0 -15 7 -26 21 -29 25 -7 37 17 19 38 -19 23 -40 18 -40
-9z"/>
<path d="M1655 2860 c-8 -14 3 -30 21 -30 8 0 14 9 14 20 0 21 -24 28 -35 10z"/>
<path d="M2158 2845 c-6 -30 7 -42 27 -25 11 9 12 17 4 31 -14 26 -26 24 -31
-6z"/>
<path d="M2334 2856 c-9 -22 2 -46 21 -46 12 0 15 8 13 27 -3 30 -25 42 -34
19z"/>
<path d="M1306 2846 c7 -19 48 -22 42 -3 -3 6 -14 13 -26 15 -16 3 -20 -1 -16
-12z"/>
<path d="M1830 2841 c0 -11 5 -23 10 -26 6 -3 10 3 10 14 0 11 -4 23 -10 26
-5 3 -10 -3 -10 -14z"/>
<path d="M1985 2850 c-3 -6 1 -13 10 -16 19 -8 30 0 20 15 -8 14 -22 14 -30 1z"/>
<path d="M2502 2847 c-13 -15 1 -42 17 -33 13 9 15 33 2 40 -5 3 -13 0 -19 -7z"/>
<path d="M2661 2842 c-11 -21 -6 -32 16 -32 15 0 18 36 4 45 -6 3 -15 -3 -20
-13z"/>
<path d="M2828 2854 c-14 -13 6 -44 28 -44 29 0 31 11 6 33 -20 18 -26 20 -34
11z"/>
<path d="M3320 2836 c0 -13 7 -26 15 -29 19 -8 24 3 14 31 -11 29 -29 28 -29
-2z"/>
<path d="M3486 2844 c-8 -20 1 -34 20 -34 15 0 17 9 8 34 -8 20 -20 20 -28 0z"/>
<path d="M3642 2833 c2 -22 9 -29 31 -31 32 -4 36 16 9 41 -28 25 -44 21 -40
-10z"/>
<path d="M4137 2853 c-4 -3 -7 -17 -7 -30 0 -16 6 -23 20 -23 20 0 25 15 14
44 -7 17 -16 20 -27 9z"/>
<path d="M3005 2840 c-7 -12 2 -30 16 -30 5 0 9 9 9 20 0 21 -15 27 -25 10z"/>
<path d="M3165 2840 c-8 -13 3 -30 21 -30 18 0 18 14 0 29 -10 8 -16 9 -21 1z"/>
<path d="M3984 2826 c-8 -22 3 -33 18 -18 9 9 9 15 0 24 -9 9 -13 7 -18 -6z"/>
<path d="M7253 3453 c9 -2 25 -2 35 0 9 3 1 5 -18 5 -19 0 -27 -2 -17 -5z"/>
<path d="M12428 3323 c7 -3 16 -2 19 1 4 3 -2 6 -13 5 -11 0 -14 -3 -6 -6z"/>
<path d="M8080 2810 c0 -5 5 -10 11 -10 5 0 7 5 4 10 -3 6 -8 10 -11 10 -2 0
-4 -4 -4 -10z"/>
<path d="M9462 2594 c9 -9 21 -13 28 -9 14 9 -5 25 -30 25 -12 0 -12 -3 2 -16z"/>
</g>
</svg>
