<?xml version="1.0" standalone="no"?>
<!DOCTYPE svg PUBLIC "-//W3C//DTD SVG 20010904//EN"
 "http://www.w3.org/TR/2001/REC-SVG-20010904/DTD/svg10.dtd">
<svg version="1.0" xmlns="http://www.w3.org/2000/svg"
 width="512.000000pt" height="512.000000pt" viewBox="0 0 512.000000 512.000000"
 preserveAspectRatio="xMidYMid meet">

<g transform="translate(0.000000,512.000000) scale(0.100000,-0.100000)"
fill="#000000" stroke="none">
<path d="M383 5105 c-137 -37 -263 -136 -322 -253 -65 -130 -61 53 -61 -2479
l0 -2303 29 -32 29 -33 2496 -3 2496 -2 32 29 33 29 0 1642 0 1642 -33 29 -32
29 -165 0 -164 0 -3 488 c-3 474 -4 488 -24 533 -28 60 -93 125 -153 153 -45
20 -59 21 -533 24 l-488 3 0 32 c-1 18 -7 59 -14 92 -39 183 -191 336 -377
380 -93 21 -2665 21 -2746 0z m2724 -200 c66 -20 127 -65 163 -122 17 -26 30
-51 30 -55 0 -4 -693 -8 -1540 -8 -847 0 -1540 4 -1540 8 0 20 61 102 95 128
20 15 60 36 88 45 49 17 130 18 1353 19 1124 0 1307 -2 1351 -15z m-2045 -555
l3 -170 27 -27 c24 -23 38 -28 98 -31 l70 -4 0 -422 c0 -374 2 -424 16 -446 9
-14 99 -108 200 -210 l183 -185 3 -197 c3 -190 4 -197 26 -221 28 -30 63 -38
107 -26 57 16 65 49 65 261 l0 183 171 170 c94 94 184 188 200 209 l29 39 0
424 0 423 65 0 c57 0 68 3 97 29 l33 29 3 171 3 171 430 0 429 0 0 -1360 0
-1360 -179 0 -180 0 -3 171 -3 171 -33 29 -33 29 -1134 -2 -1135 -3 -27 -28
-28 -27 -3 -170 -3 -170 -180 0 -179 0 0 1360 0 1360 429 0 430 0 3 -170z
m1198 70 l0 -100 -500 0 -500 0 0 100 0 100 500 0 500 0 0 -100z m1460 -120
l0 -100 -100 0 -100 0 0 100 0 100 100 0 100 0 0 -100z m767 67 l28 -27 3
-270 3 -270 -100 0 -100 0 -3 171 -3 171 -33 29 -32 29 -165 0 -165 0 0 100 0
101 270 -3 270 -3 27 -28z m-2647 -261 c-8 -7 -97 -75 -197 -150 l-183 -136 0
150 0 150 197 0 c167 0 195 -2 183 -14z m220 -200 l0 -114 -295 -221 c-162
-121 -297 -221 -300 -221 -3 0 -5 49 -5 110 l0 110 298 224 c163 124 298 225
300 225 1 1 2 -50 2 -113z m2060 -206 l0 -300 -300 0 -300 0 0 300 0 300 300
0 300 0 0 -300z m400 -200 l0 -100 -100 0 -100 0 0 100 0 100 100 0 100 0 0
-100z m-2610 -304 l-150 -151 -75 75 c-41 41 -74 78 -73 82 2 4 102 81 223
172 l220 165 3 -97 3 -96 -151 -150z m3010 -696 l0 -700 -700 0 -700 0 0 700
0 700 700 0 700 0 0 -700z m-2160 -600 l0 -100 -1000 0 -1000 0 0 100 0 100
1000 0 1000 0 0 -100z m-1498 -670 l3 -370 28 -27 27 -28 435 -3 434 -3 33 30
33 29 3 371 3 371 529 0 530 0 0 -365 0 -365 29 -32 29 -33 771 -3 771 -2 0
-100 0 -100 -1300 -2 -1300 -3 -27 -27 c-38 -39 -38 -97 0 -135 l27 -28 500
-3 500 -3 0 -99 0 -100 -1360 0 -1360 0 0 100 0 99 500 3 500 3 27 28 c38 38
38 96 0 134 l-27 28 -700 3 -700 2 0 500 0 500 530 0 529 0 3 -370z m798 70
l0 -300 -300 0 -300 0 0 300 0 300 300 0 300 0 0 -300z m2860 0 l0 -300 -700
0 -700 0 0 300 0 300 700 0 700 0 0 -300z m-4520 -1000 l0 -100 -100 0 -100 0
0 100 0 100 100 0 100 0 0 -100z m4520 0 l0 -100 -700 0 -700 0 0 100 0 100
700 0 700 0 0 -100z"/>
<path d="M3784 2990 c-12 -4 -31 -21 -43 -36 -21 -26 -21 -33 -21 -455 l0
-429 29 -32 29 -33 436 -3 435 -3 33 30 33 29 0 442 0 442 -33 29 -32 29 -423
-1 c-232 0 -432 -4 -443 -9z m736 -490 l0 -300 -300 0 -300 0 0 300 0 300 300
0 300 0 0 -300z"/>
<path d="M1925 591 c-64 -27 -81 -110 -32 -158 60 -61 162 -19 162 67 0 66
-72 116 -130 91z"/>
<path d="M3784 1390 c-32 -13 -64 -59 -64 -91 0 -40 46 -88 91 -95 31 -5 42
-1 70 24 28 25 34 37 34 72 0 35 -6 47 -33 71 -33 29 -60 35 -98 19z"/>
<path d="M4184 1390 c-32 -13 -64 -59 -64 -91 0 -40 46 -88 91 -95 31 -5 42
-1 70 24 28 25 34 37 34 72 0 35 -6 47 -33 71 -33 29 -60 35 -98 19z"/>
<path d="M4584 1390 c-32 -13 -64 -59 -64 -91 0 -40 46 -88 91 -95 31 -5 42
-1 70 24 28 25 34 37 34 72 0 35 -6 47 -33 71 -33 29 -60 35 -98 19z"/>
</g>
</svg>
